M48
;Layer_Color=9474304
;FILE_FORMAT=2:5
INCH,TZ
;TYPE=PLATED
T5F00S00C0.04200
;TYPE=NON_PLATED
%
G90
G05
T05
G00X428950Y90500
M15
G01X413650
M16
G00X428950Y131900
M15
G01X413650
M16
G00X473050Y131900
M15
G01X457750
M16
G00X473050Y90500
M15
G01X457750
M16
G00X473050Y179100
M15
G01X457750
M16
G00X428950Y179100
M15
G01X413650
M16
G00X191500Y187700
M15
G01X175700
M16
G00X191500Y152300
M15
G01X175700
M16
G00X160000Y180900
M15
G01Y159100
M16
G00X128500Y180900
M15
G01Y159100
M16
G00X168400Y119000
M15
G01X146600
M16
G00X168400Y87500
M15
G01X146600
M16
G00X139800Y56000
M15
G01Y71800
M16
G00X175200Y56000
M15
G01Y71800
M16
G00X191500Y227300
M15
G01X175700
M16
G00X191500Y262700
M15
G01X175700
M16
G00X160000Y255900
M15
G01Y234100
M16
G00X128500Y255900
M15
G01Y234100
M16
G00X139800Y321000
M15
G01Y336800
M16
G00X175200Y321000
M15
G01Y336800
M16
G00X168400Y352500
M15
G01X146600
M16
G00X428950Y355500
M15
G01X413650
M16
G00X473050Y355500
M15
G01X457750
M16
G00X457750Y267900
M15
G01X473050
M16
G00X413650Y267900
M15
G01X428950
M16
G00X413650Y220700
M15
G01X428950
M16
G00X457750Y220700
M15
G01X473050
M16
G00X473050Y396900
M15
G01X457750
M16
G00X428950Y396900
M15
G01X413650
M16
G00X428950Y444100
M15
G01X413650
M16
G00X413650Y485700
M15
G01X428950
M16
G00X457750Y485700
M15
G01X473050
M16
G00X473050Y444100
M15
G01X457750
M16
G00X191500Y452700
M15
G01X175700
M16
G00X191500Y417300
M15
G01X175700
M16
G00X160000Y445900
M15
G01Y424100
M16
G00X128500Y445900
M15
G01Y424100
M16
G00X128500Y520900
M15
G01Y499100
M16
G00X160000Y520900
M15
G01Y499100
M16
G00X191500Y492300
M15
G01X175700
M16
G00X168400Y384000
M15
G01X146600
M16
G00X191500Y527700
M15
G01X175700
M16
G00X413650Y532900
M15
G01X428950
M16
G00X457750Y532900
M15
G01X473050
M16
M17
M30
