M48
;Layer_Color=9474304
;FILE_FORMAT=2:5
INCH,TZ
;TYPE=PLATED
T1F00S00C0.01800
T2F00S00C0.02400
T3F00S00C0.03200
T4F00S00C0.04200
T6F00S00C0.06200
T7F00S00C0.12000
T8F00S00C0.16100
;TYPE=NON_PLATED
T9F00S00C0.12000
%
T01
X178100Y34500
X180900
X183700
X186500
X189300
X192100
X418100
X420900
X423700
X426500
X429300
X432100
X500500Y152900
Y155700
Y158500
Y161300
Y164100
Y166900
X349500
Y164100
Y161300
Y158500
Y155700
Y152900
X335500
Y155700
Y158500
Y161300
Y164100
Y166900
X34500
Y164100
Y161300
Y158500
Y155700
Y152900
X178100Y285500
X180900
X183700
X186500
X189300
X192100
Y299500
X189300
X186500
X183700
X180900
X178100
X418100
X420900
X423700
X426500
X429300
X432100
Y277500
X429300
X426500
X423700
X420900
X418100
X500500Y417900
Y420700
Y423500
Y426300
Y429100
Y431900
X349500
Y429100
Y426300
Y423500
Y420700
Y417900
X335500
Y420700
Y423500
Y426300
Y429100
Y431900
X34500
Y429100
Y426300
Y423500
Y420700
Y417900
X178100Y550500
X180900
X183700
X186500
X189300
X192100
X418100Y542500
X420900
X423700
X426500
X429300
X432100
T02
X175000Y34500
X195200
X415000
X435200
X500500Y149800
Y170000
X349500
X335500
Y149800
X349500
X34500
Y170000
X175000Y285500
Y299500
X195200
Y285500
X415000Y277500
X435200
Y299500
X415000
X500500Y414800
Y435000
X349500
X335500
Y414800
X349500
X34500
Y435000
X175000Y550500
X195200
X415000Y542500
X435200
T03
X80000Y52500
X120000
X270000Y55000
X290000
X387500Y45000
Y105000
X373300
X387500Y210000
X490000Y200000
Y142500
Y82500
X361000Y76900
Y66900
Y56900
X362500Y90000
Y130000
X360900Y145800
Y155800
Y165800
X362500Y180000
X264900Y168100
X232500Y171500
X247500Y202500
X252500
X257500
X262500Y120000
X260000Y102500
X270000
X280000
X290000
X310000Y100000
Y80000
X290000Y72500
X280000
X270000
X260000
X237500
Y92500
X222500Y120000
X210800Y158600
X105000Y97500
X91200
X67500Y115000
Y75000
X80000Y67500
X120000
Y317500
Y332500
X80000
Y317500
X67500Y340000
X91200Y362500
X105000
X237500Y357500
Y337500
X260000
X270000
X280000
X290000
Y320000
X270000
Y367500
X280000
X290000
X310000Y365000
Y345000
X361000Y341900
Y331900
Y321900
X362500Y355000
X361000Y254600
Y244600
Y234600
X362500Y220000
X322500Y242500
X282500
X270000Y222500
X230000
X252500Y275000
X292500
X260000Y367500
X387500Y310000
Y270000
X390400Y237800
X490000Y240000
Y347500
Y407500
Y465000
Y505000
X390400Y502800
X387500Y475000
Y370000
X373300
X362500Y395000
X360900Y410800
Y420800
Y430800
X362500Y445000
Y485000
X361000Y499600
Y509600
Y519600
X322500Y507500
X282500
X270000Y487500
X257500Y467500
X252500
X247500
X230000Y487500
X232500Y436500
X264900Y433100
X262500Y385000
X222500
X210800Y423600
X67500Y380000
X252500Y540000
X292500
X387500Y535000
T04
X201909Y50000
X243091
X252500Y140000
Y150000
X232500
Y140000
X217500Y136909
Y178091
X232500Y180000
X252500
X267500Y178091
Y136909
X97353Y132410
X85542
Y146190
X97353
Y159969
X85542
Y173749
X97353
Y187528
X85542
Y201308
X97353
Y215087
X85542
X201909Y315000
X243091
X217500Y258091
Y216909
X281909Y222500
X323091
X267500Y401909
X252500Y405000
Y415000
X232500
Y405000
X217500Y401909
Y443091
X232500Y445000
X252500
X267500Y443091
X281909Y487500
X323091
X217500Y481909
Y523091
X97353Y480087
X85542
Y466308
X97353
Y452528
X85542
Y438749
X97353
Y424969
X85542
Y411190
X97353
Y397410
X85542
T06
X443350Y57650
Y146250
X392500Y149252
Y165000
Y180748
Y196496
Y133504
Y117756
X307717Y121870
X290000Y129941
Y143720
Y157500
Y171280
Y185059
Y198839
X307717Y206909
X443350Y253550
Y322650
Y411250
X392500Y414252
Y430000
Y445748
Y461496
Y398504
Y382756
X443350Y518550
X307717Y471909
X290000Y463839
Y450059
Y436280
Y422500
Y408720
Y394941
X307717Y386870
T07
X54400Y139300
Y208198
Y404300
Y473198
T08
X210000Y77500
Y342500
X92500Y252500
X255000
Y517500
X92500
T09
X443400Y111400
Y200000
Y376400
Y465000
M30
