G04 Layer_Color=65535*
%FSLAX25Y25*%
%MOIN*%
G70*
G01*
G75*
%ADD17C,0.01000*%
%ADD42C,0.02362*%
%ADD43C,0.00984*%
%ADD44C,0.00787*%
%ADD45C,0.00591*%
%ADD46R,0.03150X0.11024*%
%ADD47R,0.11024X0.03150*%
%ADD48R,0.11024X0.03150*%
D17*
X114600Y362500D02*
G03*
X114600Y362500I-16500J0D01*
G01*
Y97500D02*
G03*
X114600Y97500I-16500J0D01*
G01*
X380492Y374882D02*
Y469370D01*
Y374882D02*
X398209D01*
X380492Y469370D02*
X398209D01*
Y374882D02*
Y469370D01*
X380492Y109882D02*
Y204370D01*
Y109882D02*
X398209D01*
X380492Y204370D02*
X398209D01*
Y109882D02*
Y204370D01*
X228200Y400800D02*
X256900D01*
Y449200D01*
X228200Y400800D02*
Y449200D01*
X256900D01*
X187000Y307800D02*
Y396400D01*
X127900D02*
X187000D01*
X127900Y307800D02*
X187000D01*
X127900D02*
Y396400D01*
X116100Y464500D02*
X204700D01*
X116100Y405400D02*
Y464500D01*
X204700Y405400D02*
Y464500D01*
X116100Y405400D02*
X204700D01*
X116100Y539500D02*
X204700D01*
X116100Y480400D02*
Y539500D01*
X204700Y480400D02*
Y539500D01*
X116100Y480400D02*
X204700D01*
X278583Y383917D02*
X334488D01*
Y474862D01*
X278583Y383917D02*
Y474862D01*
X334488D01*
X116780Y362500D02*
X120780D01*
X118780Y360500D02*
Y364500D01*
X35443Y491898D02*
X100089D01*
X35443Y387646D02*
Y491898D01*
X100089Y387646D02*
Y491898D01*
X35443Y387646D02*
X100089D01*
X228200Y135800D02*
X256900D01*
Y184200D01*
X228200Y135800D02*
Y184200D01*
X256900D01*
X187000Y42800D02*
Y131400D01*
X127900D02*
X187000D01*
X127900Y42800D02*
X187000D01*
X127900D02*
Y131400D01*
X116100Y199500D02*
X204700D01*
X116100Y140400D02*
Y199500D01*
X204700Y140400D02*
Y199500D01*
X116100Y140400D02*
X204700D01*
X116100Y274500D02*
X204700D01*
X116100Y215400D02*
Y274500D01*
X204700Y215400D02*
Y274500D01*
X116100Y215400D02*
X204700D01*
X278583Y118917D02*
X334488D01*
Y209862D01*
X278583Y118917D02*
Y209862D01*
X334488D01*
X116780Y97500D02*
X120780D01*
X118780Y95500D02*
Y99500D01*
X35443Y226898D02*
X100089D01*
X35443Y122646D02*
Y226898D01*
X100089Y122646D02*
Y226898D01*
X35443Y122646D02*
X100089D01*
X487002Y44500D02*
X486002Y45500D01*
Y47499D01*
X487002Y48499D01*
X488001D01*
X489001Y47499D01*
Y46499D01*
Y47499D01*
X490001Y48499D01*
X491000D01*
X492000Y47499D01*
Y45500D01*
X491000Y44500D01*
X486002Y50498D02*
Y54497D01*
X487002D01*
X491000Y50498D01*
X492000D01*
X489001Y56496D02*
Y60495D01*
X492000Y66493D02*
Y62494D01*
X488001Y66493D01*
X487002D01*
X486002Y65493D01*
Y63494D01*
X487002Y62494D01*
Y68492D02*
X486002Y69492D01*
Y71491D01*
X487002Y72491D01*
X491000D01*
X492000Y71491D01*
Y69492D01*
X491000Y68492D01*
X487002D01*
Y155999D02*
X486002Y154999D01*
Y153000D01*
X487002Y152000D01*
X488001D01*
X489001Y153000D01*
Y154999D01*
X490001Y155999D01*
X491000D01*
X492000Y154999D01*
Y153000D01*
X491000Y152000D01*
X486002Y157998D02*
Y161997D01*
Y159997D01*
X492000D01*
X486002Y167995D02*
Y163996D01*
X492000D01*
Y167995D01*
X489001Y163996D02*
Y165996D01*
X486002Y173993D02*
Y169994D01*
X489001D01*
Y171994D01*
Y169994D01*
X492000D01*
Y179991D02*
Y175992D01*
X488001Y179991D01*
X487002D01*
X486002Y178991D01*
Y176992D01*
X487002Y175992D01*
X486002Y185989D02*
X487002Y183990D01*
X489001Y181990D01*
X491000D01*
X492000Y182990D01*
Y184989D01*
X491000Y185989D01*
X490001D01*
X489001Y184989D01*
Y181990D01*
X487002Y187988D02*
X486002Y188988D01*
Y190987D01*
X487002Y191987D01*
X488001D01*
X489001Y190987D01*
Y189988D01*
Y190987D01*
X490001Y191987D01*
X491000D01*
X492000Y190987D01*
Y188988D01*
X491000Y187988D01*
X487002Y309500D02*
X486002Y310500D01*
Y312499D01*
X487002Y313499D01*
X488001D01*
X489001Y312499D01*
Y311499D01*
Y312499D01*
X490001Y313499D01*
X491000D01*
X492000Y312499D01*
Y310500D01*
X491000Y309500D01*
X486002Y315498D02*
Y319497D01*
X487002D01*
X491000Y315498D01*
X492000D01*
X489001Y321496D02*
Y325495D01*
X492000Y331493D02*
Y327494D01*
X488001Y331493D01*
X487002D01*
X486002Y330493D01*
Y328494D01*
X487002Y327494D01*
Y333492D02*
X486002Y334492D01*
Y336491D01*
X487002Y337491D01*
X491000D01*
X492000Y336491D01*
Y334492D01*
X491000Y333492D01*
X487002D01*
Y420999D02*
X486002Y419999D01*
Y418000D01*
X487002Y417000D01*
X488001D01*
X489001Y418000D01*
Y419999D01*
X490001Y420999D01*
X491000D01*
X492000Y419999D01*
Y418000D01*
X491000Y417000D01*
X486002Y422998D02*
Y426997D01*
Y424997D01*
X492000D01*
X486002Y432995D02*
Y428996D01*
X492000D01*
Y432995D01*
X489001Y428996D02*
Y430996D01*
X486002Y438993D02*
Y434994D01*
X489001D01*
Y436994D01*
Y434994D01*
X492000D01*
Y444991D02*
Y440992D01*
X488001Y444991D01*
X487002D01*
X486002Y443991D01*
Y441992D01*
X487002Y440992D01*
X486002Y450989D02*
X487002Y448990D01*
X489001Y446990D01*
X491000D01*
X492000Y447990D01*
Y449989D01*
X491000Y450989D01*
X490001D01*
X489001Y449989D01*
Y446990D01*
X487002Y452988D02*
X486002Y453988D01*
Y455987D01*
X487002Y456987D01*
X488001D01*
X489001Y455987D01*
Y454988D01*
Y455987D01*
X490001Y456987D01*
X491000D01*
X492000Y455987D01*
Y453988D01*
X491000Y452988D01*
X401502Y463251D02*
Y461251D01*
Y462251D01*
X406500D01*
X407500Y461251D01*
Y460252D01*
X406500Y459252D01*
X407500Y465250D02*
Y467249D01*
Y466250D01*
X401502D01*
X402502Y465250D01*
X486600Y511500D02*
Y517498D01*
X489599D01*
X490599Y516498D01*
Y514499D01*
X489599Y513499D01*
X486600D01*
X488599D02*
X490599Y511500D01*
X492598D02*
X494597D01*
X493598D01*
Y517498D01*
X492598Y516498D01*
X380000Y485000D02*
X374002D01*
Y487999D01*
X375002Y488999D01*
X377001D01*
X378001Y487999D01*
Y485000D01*
Y486999D02*
X380000Y488999D01*
Y494997D02*
Y490998D01*
X376001Y494997D01*
X375002D01*
X374002Y493997D01*
Y491998D01*
X375002Y490998D01*
X375000Y445000D02*
X369002D01*
Y447999D01*
X370002Y448999D01*
X372001D01*
X373001Y447999D01*
Y445000D01*
Y446999D02*
X375000Y448999D01*
X370002Y450998D02*
X369002Y451998D01*
Y453997D01*
X370002Y454997D01*
X371001D01*
X372001Y453997D01*
Y452997D01*
Y453997D01*
X373001Y454997D01*
X374000D01*
X375000Y453997D01*
Y451998D01*
X374000Y450998D01*
X380000Y320000D02*
X374002D01*
Y322999D01*
X375002Y323999D01*
X377001D01*
X378001Y322999D01*
Y320000D01*
Y321999D02*
X380000Y323999D01*
Y328997D02*
X374002D01*
X377001Y325998D01*
Y329997D01*
X375000Y355000D02*
X369002D01*
Y357999D01*
X370002Y358999D01*
X372001D01*
X373001Y357999D01*
Y355000D01*
Y356999D02*
X375000Y358999D01*
X369002Y364997D02*
Y360998D01*
X372001D01*
X371001Y362997D01*
Y363997D01*
X372001Y364997D01*
X374000D01*
X375000Y363997D01*
Y361998D01*
X374000Y360998D01*
X482500Y372500D02*
X476502D01*
Y375499D01*
X477502Y376499D01*
X479501D01*
X480501Y375499D01*
Y372500D01*
Y374499D02*
X482500Y376499D01*
X476502Y382497D02*
X477502Y380497D01*
X479501Y378498D01*
X481500D01*
X482500Y379498D01*
Y381497D01*
X481500Y382497D01*
X480501D01*
X479501Y381497D01*
Y378498D01*
X401502Y198251D02*
Y196251D01*
Y197251D01*
X406500D01*
X407500Y196251D01*
Y195252D01*
X406500Y194252D01*
X407500Y200250D02*
Y202249D01*
Y201250D01*
X401502D01*
X402502Y200250D01*
X486600Y246500D02*
Y252498D01*
X489599D01*
X490599Y251498D01*
Y249499D01*
X489599Y248499D01*
X486600D01*
X488599D02*
X490599Y246500D01*
X492598D02*
X494597D01*
X493598D01*
Y252498D01*
X492598Y251498D01*
X380000Y220000D02*
X374002D01*
Y222999D01*
X375002Y223999D01*
X377001D01*
X378001Y222999D01*
Y220000D01*
Y221999D02*
X380000Y223999D01*
Y229997D02*
Y225998D01*
X376001Y229997D01*
X375002D01*
X374002Y228997D01*
Y226998D01*
X375002Y225998D01*
X375000Y180000D02*
X369002D01*
Y182999D01*
X370002Y183999D01*
X372001D01*
X373001Y182999D01*
Y180000D01*
Y181999D02*
X375000Y183999D01*
X370002Y185998D02*
X369002Y186998D01*
Y188997D01*
X370002Y189997D01*
X371001D01*
X372001Y188997D01*
Y187997D01*
Y188997D01*
X373001Y189997D01*
X374000D01*
X375000Y188997D01*
Y186998D01*
X374000Y185998D01*
X380000Y55000D02*
X374002D01*
Y57999D01*
X375002Y58999D01*
X377001D01*
X378001Y57999D01*
Y55000D01*
Y56999D02*
X380000Y58999D01*
Y63997D02*
X374002D01*
X377001Y60998D01*
Y64997D01*
X375000Y90000D02*
X369002D01*
Y92999D01*
X370002Y93999D01*
X372001D01*
X373001Y92999D01*
Y90000D01*
Y91999D02*
X375000Y93999D01*
X369002Y99997D02*
Y95998D01*
X372001D01*
X371001Y97997D01*
Y98997D01*
X372001Y99997D01*
X374000D01*
X375000Y98997D01*
Y96998D01*
X374000Y95998D01*
X482500Y107500D02*
X476502D01*
Y110499D01*
X477502Y111499D01*
X479501D01*
X480501Y110499D01*
Y107500D01*
Y109499D02*
X482500Y111499D01*
X476502Y117497D02*
X477502Y115497D01*
X479501Y113498D01*
X481500D01*
X482500Y114498D01*
Y116497D01*
X481500Y117497D01*
X480501D01*
X479501Y116497D01*
Y113498D01*
X270000Y378498D02*
Y373500D01*
X271000Y372500D01*
X272999D01*
X273999Y373500D01*
Y378498D01*
X275998Y372500D02*
X277997D01*
X276998D01*
Y378498D01*
X275998Y377498D01*
X275000Y527500D02*
Y533498D01*
X277999D01*
X278999Y532498D01*
Y530499D01*
X277999Y529499D01*
X275000D01*
X276999D02*
X278999Y527500D01*
X280998D02*
X282997D01*
X281998D01*
Y533498D01*
X280998Y532498D01*
X285996D02*
X286996Y533498D01*
X288996D01*
X289995Y532498D01*
Y531499D01*
X288996Y530499D01*
X287996D01*
X288996D01*
X289995Y529499D01*
Y528500D01*
X288996Y527500D01*
X286996D01*
X285996Y528500D01*
X95000Y305000D02*
Y309998D01*
X97499D01*
X98332Y309165D01*
Y307499D01*
X97499Y306666D01*
X95000D01*
X96666D02*
X98332Y305000D01*
X99998D02*
X101664D01*
X100831D01*
Y309998D01*
X99998Y309165D01*
X107496Y305000D02*
X104164D01*
X107496Y308332D01*
Y309165D01*
X106663Y309998D01*
X104997D01*
X104164Y309165D01*
X60000Y355000D02*
X54002D01*
Y357999D01*
X55002Y358999D01*
X57001D01*
X58001Y357999D01*
Y355000D01*
Y356999D02*
X60000Y358999D01*
Y360998D02*
Y362997D01*
Y361998D01*
X54002D01*
X55002Y360998D01*
X60000Y365996D02*
Y367996D01*
Y366996D01*
X54002D01*
X55002Y365996D01*
X280300Y514900D02*
Y520898D01*
X283299D01*
X284299Y519898D01*
Y517899D01*
X283299Y516899D01*
X280300D01*
X282299D02*
X284299Y514900D01*
X286298D02*
X288297D01*
X287298D01*
Y520898D01*
X286298Y519898D01*
X291296D02*
X292296Y520898D01*
X294296D01*
X295295Y519898D01*
Y515900D01*
X294296Y514900D01*
X292296D01*
X291296Y515900D01*
Y519898D01*
X237500Y392500D02*
Y397498D01*
X239999D01*
X240832Y396665D01*
Y394999D01*
X239999Y394166D01*
X237500D01*
X239166D02*
X240832Y392500D01*
X242498Y393333D02*
X243331Y392500D01*
X244998D01*
X245831Y393333D01*
Y396665D01*
X244998Y397498D01*
X243331D01*
X242498Y396665D01*
Y395832D01*
X243331Y394999D01*
X245831D01*
X237500Y495000D02*
Y499998D01*
X239999D01*
X240832Y499165D01*
Y497499D01*
X239999Y496666D01*
X237500D01*
X239166D02*
X240832Y495000D01*
X242498Y499165D02*
X243331Y499998D01*
X244998D01*
X245831Y499165D01*
Y498332D01*
X244998Y497499D01*
X245831Y496666D01*
Y495833D01*
X244998Y495000D01*
X243331D01*
X242498Y495833D01*
Y496666D01*
X243331Y497499D01*
X242498Y498332D01*
Y499165D01*
X243331Y497499D02*
X244998D01*
X112500Y340000D02*
Y345998D01*
X115499D01*
X116499Y344998D01*
Y342999D01*
X115499Y341999D01*
X112500D01*
X114499D02*
X116499Y340000D01*
X118498Y345998D02*
X122497D01*
Y344998D01*
X118498Y341000D01*
Y340000D01*
X236499Y467500D02*
Y471498D01*
X235499Y472498D01*
X233500D01*
X232500Y471498D01*
Y467500D01*
X233500Y466500D01*
X235499D01*
X234499Y468499D02*
X236499Y466500D01*
X235499D02*
X236499Y467500D01*
X238498Y466500D02*
X240497D01*
X239498D01*
Y472498D01*
X238498Y471498D01*
X228700Y458698D02*
Y452700D01*
Y454699D01*
X232699Y458698D01*
X229700Y455699D01*
X232699Y452700D01*
X237697D02*
Y458698D01*
X234698Y455699D01*
X238697D01*
X190000Y395998D02*
Y390000D01*
Y391999D01*
X193999Y395998D01*
X191000Y392999D01*
X193999Y390000D01*
X195998Y394998D02*
X196998Y395998D01*
X198997D01*
X199997Y394998D01*
Y393999D01*
X198997Y392999D01*
X197997D01*
X198997D01*
X199997Y391999D01*
Y391000D01*
X198997Y390000D01*
X196998D01*
X195998Y391000D01*
X116600Y473998D02*
Y468000D01*
Y469999D01*
X120599Y473998D01*
X117600Y470999D01*
X120599Y468000D01*
X126597D02*
X122598D01*
X126597Y471999D01*
Y472998D01*
X125597Y473998D01*
X123598D01*
X122598Y472998D01*
X207500Y538498D02*
Y532500D01*
Y534499D01*
X211499Y538498D01*
X208500Y535499D01*
X211499Y532500D01*
X213498D02*
X215497D01*
X214498D01*
Y538498D01*
X213498Y537498D01*
X323999Y380998D02*
X321999D01*
X322999D01*
Y376000D01*
X321999Y375000D01*
X321000D01*
X320000Y376000D01*
X329997Y375000D02*
X325998D01*
X329997Y378999D01*
Y379998D01*
X328997Y380998D01*
X326998D01*
X325998Y379998D01*
X225000Y327498D02*
Y322500D01*
X227499D01*
X228332Y323333D01*
Y326665D01*
X227499Y327498D01*
X225000D01*
X229998Y326665D02*
X230831Y327498D01*
X232498D01*
X233331Y326665D01*
Y325832D01*
X232498Y324999D01*
X233331Y324166D01*
Y323333D01*
X232498Y322500D01*
X230831D01*
X229998Y323333D01*
Y324166D01*
X230831Y324999D01*
X229998Y325832D01*
Y326665D01*
X230831Y324999D02*
X232498D01*
X262600Y456398D02*
Y450400D01*
X265599D01*
X266599Y451400D01*
Y455398D01*
X265599Y456398D01*
X262600D01*
X268598D02*
X272597D01*
Y455398D01*
X268598Y451400D01*
Y450400D01*
X212600Y456398D02*
Y450400D01*
X215599D01*
X216599Y451400D01*
Y455398D01*
X215599Y456398D01*
X212600D01*
X222597D02*
X220597Y455398D01*
X218598Y453399D01*
Y451400D01*
X219598Y450400D01*
X221597D01*
X222597Y451400D01*
Y452399D01*
X221597Y453399D01*
X218598D01*
X275000Y500998D02*
Y495000D01*
X277999D01*
X278999Y496000D01*
Y499998D01*
X277999Y500998D01*
X275000D01*
X284997D02*
X280998D01*
Y497999D01*
X282997Y498999D01*
X283997D01*
X284997Y497999D01*
Y496000D01*
X283997Y495000D01*
X281998D01*
X280998Y496000D01*
X226502Y497500D02*
X232500D01*
Y500499D01*
X231500Y501499D01*
X227502D01*
X226502Y500499D01*
Y497500D01*
X232500Y506497D02*
X226502D01*
X229501Y503498D01*
Y507497D01*
X322502Y353999D02*
X321502Y352999D01*
Y351000D01*
X322502Y350000D01*
X326500D01*
X327500Y351000D01*
Y352999D01*
X326500Y353999D01*
X321502Y359997D02*
Y355998D01*
X324501D01*
X323501Y357997D01*
Y358997D01*
X324501Y359997D01*
X326500D01*
X327500Y358997D01*
Y356998D01*
X326500Y355998D01*
X253999Y324998D02*
X252999Y325998D01*
X251000D01*
X250000Y324998D01*
Y321000D01*
X251000Y320000D01*
X252999D01*
X253999Y321000D01*
X258997Y320000D02*
Y325998D01*
X255998Y322999D01*
X259997D01*
X246499Y372498D02*
X245499Y373498D01*
X243500D01*
X242500Y372498D01*
Y368500D01*
X243500Y367500D01*
X245499D01*
X246499Y368500D01*
X248498Y372498D02*
X249498Y373498D01*
X251497D01*
X252497Y372498D01*
Y371499D01*
X251497Y370499D01*
X250497D01*
X251497D01*
X252497Y369499D01*
Y368500D01*
X251497Y367500D01*
X249498D01*
X248498Y368500D01*
X113999Y382498D02*
X112999Y383498D01*
X111000D01*
X110000Y382498D01*
Y378500D01*
X111000Y377500D01*
X112999D01*
X113999Y378500D01*
X119997Y377500D02*
X115998D01*
X119997Y381499D01*
Y382498D01*
X118997Y383498D01*
X116998D01*
X115998Y382498D01*
X43999Y500998D02*
X41999D01*
X42999D01*
Y496000D01*
X41999Y495000D01*
X41000D01*
X40000Y496000D01*
X45998Y499998D02*
X46998Y500998D01*
X48997D01*
X49997Y499998D01*
Y498999D01*
X48997Y497999D01*
X47997D01*
X48997D01*
X49997Y496999D01*
Y496000D01*
X48997Y495000D01*
X46998D01*
X45998Y496000D01*
X196499Y374998D02*
X195499Y375998D01*
X193500D01*
X192500Y374998D01*
Y373999D01*
X193500Y372999D01*
X195499D01*
X196499Y371999D01*
Y371000D01*
X195499Y370000D01*
X193500D01*
X192500Y371000D01*
X198498Y375998D02*
X202497D01*
X200497D01*
Y370000D01*
X208495Y375998D02*
X204496D01*
Y370000D01*
X208495D01*
X204496Y372999D02*
X206495D01*
X214493Y375998D02*
X210494D01*
Y372999D01*
X212493D01*
X210494D01*
Y370000D01*
X220491D02*
X216492D01*
X220491Y373999D01*
Y374998D01*
X219491Y375998D01*
X217492D01*
X216492Y374998D01*
X226489Y375998D02*
X224490Y374998D01*
X222490Y372999D01*
Y371000D01*
X223490Y370000D01*
X225489D01*
X226489Y371000D01*
Y371999D01*
X225489Y372999D01*
X222490D01*
X228488Y374998D02*
X229488Y375998D01*
X231487D01*
X232487Y374998D01*
Y373999D01*
X231487Y372999D01*
X230488D01*
X231487D01*
X232487Y371999D01*
Y371000D01*
X231487Y370000D01*
X229488D01*
X228488Y371000D01*
X77500Y542498D02*
X78500Y543498D01*
X80499D01*
X81499Y542498D01*
Y541499D01*
X80499Y540499D01*
X79499D01*
X80499D01*
X81499Y539499D01*
Y538500D01*
X80499Y537500D01*
X78500D01*
X77500Y538500D01*
X83498Y543498D02*
X87497D01*
Y542498D01*
X83498Y538500D01*
Y537500D01*
X89496Y540499D02*
X93495D01*
X99493Y537500D02*
X95494D01*
X99493Y541499D01*
Y542498D01*
X98493Y543498D01*
X96494D01*
X95494Y542498D01*
X101492D02*
X102492Y543498D01*
X104491D01*
X105491Y542498D01*
Y538500D01*
X104491Y537500D01*
X102492D01*
X101492Y538500D01*
Y542498D01*
X270000Y113498D02*
Y108500D01*
X271000Y107500D01*
X272999D01*
X273999Y108500D01*
Y113498D01*
X275998Y107500D02*
X277997D01*
X276998D01*
Y113498D01*
X275998Y112498D01*
X275000Y262500D02*
Y268498D01*
X277999D01*
X278999Y267498D01*
Y265499D01*
X277999Y264499D01*
X275000D01*
X276999D02*
X278999Y262500D01*
X280998D02*
X282997D01*
X281998D01*
Y268498D01*
X280998Y267498D01*
X285996D02*
X286996Y268498D01*
X288996D01*
X289995Y267498D01*
Y266499D01*
X288996Y265499D01*
X287996D01*
X288996D01*
X289995Y264499D01*
Y263500D01*
X288996Y262500D01*
X286996D01*
X285996Y263500D01*
X95000Y40000D02*
Y44998D01*
X97499D01*
X98332Y44165D01*
Y42499D01*
X97499Y41666D01*
X95000D01*
X96666D02*
X98332Y40000D01*
X99998D02*
X101664D01*
X100831D01*
Y44998D01*
X99998Y44165D01*
X107496Y40000D02*
X104164D01*
X107496Y43332D01*
Y44165D01*
X106663Y44998D01*
X104997D01*
X104164Y44165D01*
X60000Y90000D02*
X54002D01*
Y92999D01*
X55002Y93999D01*
X57001D01*
X58001Y92999D01*
Y90000D01*
Y91999D02*
X60000Y93999D01*
Y95998D02*
Y97997D01*
Y96998D01*
X54002D01*
X55002Y95998D01*
X60000Y100996D02*
Y102996D01*
Y101996D01*
X54002D01*
X55002Y100996D01*
X280300Y249900D02*
Y255898D01*
X283299D01*
X284299Y254898D01*
Y252899D01*
X283299Y251899D01*
X280300D01*
X282299D02*
X284299Y249900D01*
X286298D02*
X288297D01*
X287298D01*
Y255898D01*
X286298Y254898D01*
X291296D02*
X292296Y255898D01*
X294296D01*
X295295Y254898D01*
Y250900D01*
X294296Y249900D01*
X292296D01*
X291296Y250900D01*
Y254898D01*
X237500Y127500D02*
Y132498D01*
X239999D01*
X240832Y131665D01*
Y129999D01*
X239999Y129166D01*
X237500D01*
X239166D02*
X240832Y127500D01*
X242498Y128333D02*
X243331Y127500D01*
X244998D01*
X245831Y128333D01*
Y131665D01*
X244998Y132498D01*
X243331D01*
X242498Y131665D01*
Y130832D01*
X243331Y129999D01*
X245831D01*
X237500Y230000D02*
Y234998D01*
X239999D01*
X240832Y234165D01*
Y232499D01*
X239999Y231666D01*
X237500D01*
X239166D02*
X240832Y230000D01*
X242498Y234165D02*
X243331Y234998D01*
X244998D01*
X245831Y234165D01*
Y233332D01*
X244998Y232499D01*
X245831Y231666D01*
Y230833D01*
X244998Y230000D01*
X243331D01*
X242498Y230833D01*
Y231666D01*
X243331Y232499D01*
X242498Y233332D01*
Y234165D01*
X243331Y232499D02*
X244998D01*
X112500Y75000D02*
Y80998D01*
X115499D01*
X116499Y79998D01*
Y77999D01*
X115499Y76999D01*
X112500D01*
X114499D02*
X116499Y75000D01*
X118498Y80998D02*
X122497D01*
Y79998D01*
X118498Y76000D01*
Y75000D01*
X236499Y202500D02*
Y206498D01*
X235499Y207498D01*
X233500D01*
X232500Y206498D01*
Y202500D01*
X233500Y201500D01*
X235499D01*
X234499Y203499D02*
X236499Y201500D01*
X235499D02*
X236499Y202500D01*
X238498Y201500D02*
X240497D01*
X239498D01*
Y207498D01*
X238498Y206498D01*
X228700Y193698D02*
Y187700D01*
Y189699D01*
X232699Y193698D01*
X229700Y190699D01*
X232699Y187700D01*
X237697D02*
Y193698D01*
X234698Y190699D01*
X238697D01*
X190000Y130998D02*
Y125000D01*
Y126999D01*
X193999Y130998D01*
X191000Y127999D01*
X193999Y125000D01*
X195998Y129998D02*
X196998Y130998D01*
X198997D01*
X199997Y129998D01*
Y128999D01*
X198997Y127999D01*
X197997D01*
X198997D01*
X199997Y126999D01*
Y126000D01*
X198997Y125000D01*
X196998D01*
X195998Y126000D01*
X116600Y208998D02*
Y203000D01*
Y204999D01*
X120599Y208998D01*
X117600Y205999D01*
X120599Y203000D01*
X126597D02*
X122598D01*
X126597Y206999D01*
Y207998D01*
X125597Y208998D01*
X123598D01*
X122598Y207998D01*
X207500Y273498D02*
Y267500D01*
Y269499D01*
X211499Y273498D01*
X208500Y270499D01*
X211499Y267500D01*
X213498D02*
X215497D01*
X214498D01*
Y273498D01*
X213498Y272498D01*
X323999Y115998D02*
X321999D01*
X322999D01*
Y111000D01*
X321999Y110000D01*
X321000D01*
X320000Y111000D01*
X329997Y110000D02*
X325998D01*
X329997Y113999D01*
Y114998D01*
X328997Y115998D01*
X326998D01*
X325998Y114998D01*
X225000Y62498D02*
Y57500D01*
X227499D01*
X228332Y58333D01*
Y61665D01*
X227499Y62498D01*
X225000D01*
X229998Y61665D02*
X230831Y62498D01*
X232498D01*
X233331Y61665D01*
Y60832D01*
X232498Y59999D01*
X233331Y59166D01*
Y58333D01*
X232498Y57500D01*
X230831D01*
X229998Y58333D01*
Y59166D01*
X230831Y59999D01*
X229998Y60832D01*
Y61665D01*
X230831Y59999D02*
X232498D01*
X262600Y191398D02*
Y185400D01*
X265599D01*
X266599Y186400D01*
Y190398D01*
X265599Y191398D01*
X262600D01*
X268598D02*
X272597D01*
Y190398D01*
X268598Y186400D01*
Y185400D01*
X212600Y191398D02*
Y185400D01*
X215599D01*
X216599Y186400D01*
Y190398D01*
X215599Y191398D01*
X212600D01*
X222597D02*
X220597Y190398D01*
X218598Y188399D01*
Y186400D01*
X219598Y185400D01*
X221597D01*
X222597Y186400D01*
Y187399D01*
X221597Y188399D01*
X218598D01*
X275000Y235998D02*
Y230000D01*
X277999D01*
X278999Y231000D01*
Y234998D01*
X277999Y235998D01*
X275000D01*
X284997D02*
X280998D01*
Y232999D01*
X282997Y233999D01*
X283997D01*
X284997Y232999D01*
Y231000D01*
X283997Y230000D01*
X281998D01*
X280998Y231000D01*
X226502Y232500D02*
X232500D01*
Y235499D01*
X231500Y236499D01*
X227502D01*
X226502Y235499D01*
Y232500D01*
X232500Y241497D02*
X226502D01*
X229501Y238498D01*
Y242497D01*
X322502Y88999D02*
X321502Y87999D01*
Y86000D01*
X322502Y85000D01*
X326500D01*
X327500Y86000D01*
Y87999D01*
X326500Y88999D01*
X321502Y94997D02*
Y90998D01*
X324501D01*
X323501Y92997D01*
Y93997D01*
X324501Y94997D01*
X326500D01*
X327500Y93997D01*
Y91998D01*
X326500Y90998D01*
X253999Y59998D02*
X252999Y60998D01*
X251000D01*
X250000Y59998D01*
Y56000D01*
X251000Y55000D01*
X252999D01*
X253999Y56000D01*
X258997Y55000D02*
Y60998D01*
X255998Y57999D01*
X259997D01*
X246499Y107498D02*
X245499Y108498D01*
X243500D01*
X242500Y107498D01*
Y103500D01*
X243500Y102500D01*
X245499D01*
X246499Y103500D01*
X248498Y107498D02*
X249498Y108498D01*
X251497D01*
X252497Y107498D01*
Y106499D01*
X251497Y105499D01*
X250497D01*
X251497D01*
X252497Y104499D01*
Y103500D01*
X251497Y102500D01*
X249498D01*
X248498Y103500D01*
X113999Y117498D02*
X112999Y118498D01*
X111000D01*
X110000Y117498D01*
Y113500D01*
X111000Y112500D01*
X112999D01*
X113999Y113500D01*
X119997Y112500D02*
X115998D01*
X119997Y116499D01*
Y117498D01*
X118997Y118498D01*
X116998D01*
X115998Y117498D01*
X43999Y235998D02*
X41999D01*
X42999D01*
Y231000D01*
X41999Y230000D01*
X41000D01*
X40000Y231000D01*
X45998Y234998D02*
X46998Y235998D01*
X48997D01*
X49997Y234998D01*
Y233999D01*
X48997Y232999D01*
X47997D01*
X48997D01*
X49997Y231999D01*
Y231000D01*
X48997Y230000D01*
X46998D01*
X45998Y231000D01*
X196499Y109998D02*
X195499Y110998D01*
X193500D01*
X192500Y109998D01*
Y108999D01*
X193500Y107999D01*
X195499D01*
X196499Y106999D01*
Y106000D01*
X195499Y105000D01*
X193500D01*
X192500Y106000D01*
X198498Y110998D02*
X202497D01*
X200497D01*
Y105000D01*
X208495Y110998D02*
X204496D01*
Y105000D01*
X208495D01*
X204496Y107999D02*
X206495D01*
X214493Y110998D02*
X210494D01*
Y107999D01*
X212493D01*
X210494D01*
Y105000D01*
X220491D02*
X216492D01*
X220491Y108999D01*
Y109998D01*
X219491Y110998D01*
X217492D01*
X216492Y109998D01*
X226489Y110998D02*
X224490Y109998D01*
X222490Y107999D01*
Y106000D01*
X223490Y105000D01*
X225489D01*
X226489Y106000D01*
Y106999D01*
X225489Y107999D01*
X222490D01*
X228488Y109998D02*
X229488Y110998D01*
X231487D01*
X232487Y109998D01*
Y108999D01*
X231487Y107999D01*
X230488D01*
X231487D01*
X232487Y106999D01*
Y106000D01*
X231487Y105000D01*
X229488D01*
X228488Y106000D01*
X77500Y277498D02*
X78500Y278498D01*
X80499D01*
X81499Y277498D01*
Y276499D01*
X80499Y275499D01*
X79499D01*
X80499D01*
X81499Y274499D01*
Y273500D01*
X80499Y272500D01*
X78500D01*
X77500Y273500D01*
X83498Y278498D02*
X87497D01*
Y277498D01*
X83498Y273500D01*
Y272500D01*
X89496Y275499D02*
X93495D01*
X99493Y272500D02*
X95494D01*
X99493Y276499D01*
Y277498D01*
X98493Y278498D01*
X96494D01*
X95494Y277498D01*
X101492D02*
X102492Y278498D01*
X104491D01*
X105491Y277498D01*
Y273500D01*
X104491Y272500D01*
X102492D01*
X101492Y273500D01*
Y277498D01*
X500000Y299500D02*
G03*
X500500Y300000I0J500D01*
G01*
X500000Y299500D02*
G03*
X500500Y300000I0J500D01*
G01*
X349500D02*
G03*
X350000Y299500I500J0D01*
G01*
X349500Y300000D02*
G03*
X350000Y299500I500J0D01*
G01*
X500500Y512000D02*
G03*
X470000Y542500I-30500J0D01*
G01*
X380000D02*
G03*
X349500Y512000I0J-30500D01*
G01*
X500000Y34500D02*
G03*
X500500Y35000I0J500D01*
G01*
X500000Y34500D02*
G03*
X500500Y35000I0J500D01*
G01*
X349500D02*
G03*
X350000Y34500I500J0D01*
G01*
X349500Y35000D02*
G03*
X350000Y34500I500J0D01*
G01*
X500500Y247000D02*
G03*
X470000Y277500I-30500J0D01*
G01*
X380000D02*
G03*
X349500Y247000I0J-30500D01*
G01*
X34500Y330000D02*
G03*
X35000Y329500I500J0D01*
G01*
X34500Y330000D02*
G03*
X35000Y329500I500J0D01*
G01*
X64500Y300000D02*
G03*
X65000Y299500I500J0D01*
G01*
X64500Y300000D02*
G03*
X65000Y299500I500J0D01*
G01*
X35000Y520500D02*
G03*
X34500Y520000I0J-500D01*
G01*
X35000Y520500D02*
G03*
X34500Y520000I0J-500D01*
G01*
X65000Y550500D02*
G03*
X64500Y550000I0J-500D01*
G01*
X65000Y550500D02*
G03*
X64500Y550000I0J-500D01*
G01*
X305000Y299500D02*
G03*
X305500Y300000I0J500D01*
G01*
X305000Y299500D02*
G03*
X305500Y300000I0J500D01*
G01*
X335000Y329500D02*
G03*
X335500Y330000I0J500D01*
G01*
X335000Y329500D02*
G03*
X335500Y330000I0J500D01*
G01*
X305500Y550000D02*
G03*
X305000Y550500I-500J0D01*
G01*
X305500Y550000D02*
G03*
X305000Y550500I-500J0D01*
G01*
X335500Y520000D02*
G03*
X335000Y520500I-500J0D01*
G01*
X335500Y520000D02*
G03*
X335000Y520500I-500J0D01*
G01*
X34500Y65000D02*
G03*
X35000Y64500I500J0D01*
G01*
X34500Y65000D02*
G03*
X35000Y64500I500J0D01*
G01*
X64500Y35000D02*
G03*
X65000Y34500I500J0D01*
G01*
X64500Y35000D02*
G03*
X65000Y34500I500J0D01*
G01*
X35000Y255500D02*
G03*
X34500Y255000I0J-500D01*
G01*
X35000Y255500D02*
G03*
X34500Y255000I0J-500D01*
G01*
X65000Y285500D02*
G03*
X64500Y285000I0J-500D01*
G01*
X65000Y285500D02*
G03*
X64500Y285000I0J-500D01*
G01*
X305000Y34500D02*
G03*
X305500Y35000I0J500D01*
G01*
X305000Y34500D02*
G03*
X305500Y35000I0J500D01*
G01*
X335000Y64500D02*
G03*
X335500Y65000I0J500D01*
G01*
X335000Y64500D02*
G03*
X335500Y65000I0J500D01*
G01*
X305500Y285000D02*
G03*
X305000Y285500I-500J0D01*
G01*
X305500Y285000D02*
G03*
X305000Y285500I-500J0D01*
G01*
X335500Y255000D02*
G03*
X335000Y255500I-500J0D01*
G01*
X335500Y255000D02*
G03*
X335000Y255500I-500J0D01*
G01*
X435000Y542500D02*
Y562500D01*
X415000Y542500D02*
Y562500D01*
X435000Y277500D02*
Y299500D01*
X415000Y277500D02*
Y299500D01*
X435000Y22500D02*
Y34500D01*
X415000Y22500D02*
Y34500D01*
X195000Y22500D02*
Y34500D01*
X175000Y22500D02*
Y34500D01*
X195000Y285500D02*
Y299500D01*
X175000Y285500D02*
Y299500D01*
X195000Y550500D02*
Y562500D01*
X175000Y550500D02*
Y562500D01*
X435000Y299500D02*
X500000D01*
X350000D02*
X415000D01*
X435000Y542500D02*
X470000D01*
X380000D02*
X415000D01*
X435000Y277500D02*
X470000D01*
X380000D02*
X415000D01*
X435000Y562500D02*
X512500D01*
X335000D02*
X415000D01*
X435000Y34500D02*
X500000D01*
X350000D02*
X415000D01*
X435000Y22500D02*
X512500D01*
X340000D02*
X415000D01*
X195000Y299500D02*
X305000D01*
X65000D02*
X175000D01*
X195000Y550500D02*
X305000D01*
X65000D02*
X175000D01*
X195000Y285500D02*
X305000D01*
X65000D02*
X175000D01*
X195000Y562500D02*
X317500D01*
X52500D02*
X175000D01*
X195000Y34500D02*
X305000D01*
X65000D02*
X175000D01*
X195000Y22500D02*
X317500D01*
X52500D02*
X175000D01*
X22500Y415000D02*
X34500D01*
X22500Y435000D02*
X34500D01*
X335500Y415000D02*
X349500D01*
X335500Y435000D02*
X349500D01*
X500500Y415000D02*
X512500D01*
X500500Y435000D02*
X512500D01*
X500500D02*
Y512000D01*
Y300000D02*
Y415000D01*
X349500Y435000D02*
Y512000D01*
Y300000D02*
Y415000D01*
X512500Y435000D02*
Y562500D01*
Y170000D02*
Y415000D01*
X335500Y435000D02*
Y520000D01*
Y330000D02*
Y415000D01*
X34500Y435000D02*
Y520000D01*
Y330000D02*
Y415000D01*
X22500Y435000D02*
Y532500D01*
Y317500D02*
Y415000D01*
X500500Y170000D02*
X512500D01*
X500500Y150000D02*
X512500D01*
X335500D02*
X349500D01*
X335500Y170000D02*
X349500D01*
X22500Y150000D02*
X34500D01*
X22500Y170000D02*
X34500D01*
X500500D02*
Y247000D01*
Y35000D02*
Y150000D01*
X349500Y170000D02*
Y247000D01*
Y35000D02*
Y150000D01*
X512500Y22500D02*
Y150000D01*
X335500Y170000D02*
Y255000D01*
Y65000D02*
Y150000D01*
X34500Y170000D02*
Y255000D01*
Y65000D02*
Y150000D01*
X22500Y170000D02*
Y267500D01*
Y52500D02*
Y150000D01*
X340000Y22500D02*
Y52500D01*
X317500Y562500D02*
X335000D01*
X52500Y532500D02*
Y562500D01*
X22500Y532500D02*
X52500D01*
X64500Y300000D02*
Y329500D01*
X35000D02*
X64500D01*
X35000Y520500D02*
X64500D01*
Y550000D01*
X305500Y300000D02*
Y329500D01*
X335000D01*
X305500Y520500D02*
Y550000D01*
Y520500D02*
X335000D01*
X64500Y35000D02*
Y64500D01*
X35000D02*
X64500D01*
X35000Y255500D02*
X64500D01*
Y285000D01*
X305500Y35000D02*
Y64500D01*
X335000D01*
X305500Y255500D02*
Y285000D01*
Y255500D02*
X335000D01*
X22500Y317500D02*
X52500D01*
Y267500D02*
Y317500D01*
X22500Y267500D02*
X52500D01*
X317500Y52500D02*
X340000D01*
X317500Y22500D02*
Y52500D01*
X52500Y22500D02*
Y52500D01*
X22500D02*
X52500D01*
X0Y0D02*
X535000D01*
Y585000D01*
X0D02*
X535000D01*
X0Y0D02*
Y585000D01*
D42*
X259842Y346004D02*
G03*
X259842Y346004I-1181J0D01*
G01*
Y81004D02*
G03*
X259842Y81004I-1181J0D01*
G01*
D43*
X255374Y337500D02*
G03*
X255374Y337500I-492J0D01*
G01*
Y72500D02*
G03*
X255374Y72500I-492J0D01*
G01*
D44*
X254724Y350000D02*
G03*
X254724Y355000I0J2500D01*
G01*
X244941Y472815D02*
G03*
X260059Y472815I7559J-5315D01*
G01*
X254724Y85000D02*
G03*
X254724Y90000I0J2500D01*
G01*
X244941Y207815D02*
G03*
X260059Y207815I7559J-5315D01*
G01*
X494000Y473000D02*
Y497000D01*
X490000D02*
Y501000D01*
Y469000D02*
Y473000D01*
X486000Y497000D02*
X494000D01*
X486000Y473000D02*
X494000D01*
X486000D02*
Y497000D01*
X392500Y485000D02*
Y525000D01*
X387500D02*
Y531000D01*
Y479000D02*
Y485000D01*
X382500Y525000D02*
X392500D01*
X382500Y485000D02*
X392500D01*
X382500D02*
Y525000D01*
X358500Y453000D02*
Y477000D01*
X362500Y449000D02*
Y453000D01*
Y477000D02*
Y481000D01*
X358500Y453000D02*
X366500D01*
X358500Y477000D02*
X366500D01*
Y453000D02*
Y477000D01*
X392500Y320000D02*
Y360000D01*
X387500D02*
Y366000D01*
Y314000D02*
Y320000D01*
X382500Y360000D02*
X392500D01*
X382500Y320000D02*
X392500D01*
X382500D02*
Y360000D01*
X358500Y363000D02*
Y387000D01*
X362500Y359000D02*
Y363000D01*
Y387000D02*
Y391000D01*
X358500Y363000D02*
X366500D01*
X358500Y387000D02*
X366500D01*
Y363000D02*
Y387000D01*
X485000Y357500D02*
Y397500D01*
X490000Y351500D02*
Y357500D01*
Y397500D02*
Y403500D01*
X485000Y357500D02*
X495000D01*
X485000Y397500D02*
X495000D01*
Y357500D02*
Y397500D01*
X494000Y208000D02*
Y232000D01*
X490000D02*
Y236000D01*
Y204000D02*
Y208000D01*
X486000Y232000D02*
X494000D01*
X486000Y208000D02*
X494000D01*
X486000D02*
Y232000D01*
X392500Y220000D02*
Y260000D01*
X387500D02*
Y266000D01*
Y214000D02*
Y220000D01*
X382500Y260000D02*
X392500D01*
X382500Y220000D02*
X392500D01*
X382500D02*
Y260000D01*
X358500Y188000D02*
Y212000D01*
X362500Y184000D02*
Y188000D01*
Y212000D02*
Y216000D01*
X358500Y188000D02*
X366500D01*
X358500Y212000D02*
X366500D01*
Y188000D02*
Y212000D01*
X392500Y55000D02*
Y95000D01*
X387500D02*
Y101000D01*
Y49000D02*
Y55000D01*
X382500Y95000D02*
X392500D01*
X382500Y55000D02*
X392500D01*
X382500D02*
Y95000D01*
X358500Y98000D02*
Y122000D01*
X362500Y94000D02*
Y98000D01*
Y122000D02*
Y126000D01*
X358500Y98000D02*
X366500D01*
X358500Y122000D02*
X366500D01*
Y98000D02*
Y122000D01*
X485000Y92500D02*
Y132500D01*
X490000Y86500D02*
Y92500D01*
Y132500D02*
Y138500D01*
X485000Y92500D02*
X495000D01*
X485000Y132500D02*
X495000D01*
Y92500D02*
Y132500D01*
X295276Y342067D02*
Y362933D01*
X254724Y355000D02*
Y362933D01*
Y342067D02*
Y350000D01*
Y362933D02*
X295276D01*
X254724Y342067D02*
X295276D01*
X284500Y540000D02*
X288500D01*
X256500D02*
X260500D01*
Y536000D02*
X284500D01*
Y544000D01*
X260500D02*
X284500D01*
X260500Y536000D02*
Y544000D01*
X84000Y317500D02*
X88000D01*
X112000D02*
X116000D01*
X88000Y321500D02*
X112000D01*
X88000Y313500D02*
Y321500D01*
Y313500D02*
X112000D01*
Y321500D01*
X67500Y344000D02*
Y348000D01*
Y372000D02*
Y376000D01*
X63500Y348000D02*
Y372000D01*
Y348000D02*
X71500D01*
Y372000D01*
X63500D02*
X71500D01*
X314500Y507500D02*
X318500D01*
X286500D02*
X290500D01*
Y503500D02*
X314500D01*
Y511500D01*
X290500D02*
X314500D01*
X290500Y503500D02*
Y511500D01*
X226500Y385000D02*
X230500D01*
X254500D02*
X258500D01*
X230500Y389000D02*
X254500D01*
X230500Y381000D02*
Y389000D01*
Y381000D02*
X254500D01*
Y389000D01*
X234000Y487500D02*
X238000D01*
X262000D02*
X266000D01*
X238000Y491500D02*
X262000D01*
X238000Y483500D02*
Y491500D01*
Y483500D02*
X262000D01*
Y491500D01*
X112000Y332500D02*
X116000D01*
X84000D02*
X88000D01*
Y328500D02*
X112000D01*
Y336500D01*
X88000D02*
X112000D01*
X88000Y328500D02*
Y336500D01*
X259390Y472815D02*
X260059D01*
X244941D02*
X245610D01*
X212067Y309488D02*
X232933D01*
X212067Y320512D02*
X232933D01*
X212067Y309488D02*
Y320512D01*
X273012Y412067D02*
Y432933D01*
X261988Y412067D02*
Y432933D01*
Y412067D02*
X273012D01*
X211988D02*
Y432933D01*
X223012Y412067D02*
Y432933D01*
X211988D02*
X223012D01*
X292067Y493012D02*
X312933D01*
X292067Y481988D02*
X312933D01*
Y493012D01*
X211988Y492067D02*
Y512933D01*
X223012Y492067D02*
Y512933D01*
X211988D02*
X223012D01*
X302500Y337500D02*
Y372500D01*
Y337500D02*
X317500D01*
Y372500D01*
X302500D02*
X317500D01*
X262500Y312500D02*
X297500D01*
Y327500D01*
X262500D02*
X297500D01*
X262500Y312500D02*
Y327500D01*
X230000Y330000D02*
Y365000D01*
Y330000D02*
X245000D01*
Y365000D01*
X230000D02*
X245000D01*
X295276Y77067D02*
Y97933D01*
X254724Y90000D02*
Y97933D01*
Y77067D02*
Y85000D01*
Y97933D02*
X295276D01*
X254724Y77067D02*
X295276D01*
X284500Y275000D02*
X288500D01*
X256500D02*
X260500D01*
Y271000D02*
X284500D01*
Y279000D01*
X260500D02*
X284500D01*
X260500Y271000D02*
Y279000D01*
X84000Y52500D02*
X88000D01*
X112000D02*
X116000D01*
X88000Y56500D02*
X112000D01*
X88000Y48500D02*
Y56500D01*
Y48500D02*
X112000D01*
Y56500D01*
X67500Y79000D02*
Y83000D01*
Y107000D02*
Y111000D01*
X63500Y83000D02*
Y107000D01*
Y83000D02*
X71500D01*
Y107000D01*
X63500D02*
X71500D01*
X314500Y242500D02*
X318500D01*
X286500D02*
X290500D01*
Y238500D02*
X314500D01*
Y246500D01*
X290500D02*
X314500D01*
X290500Y238500D02*
Y246500D01*
X226500Y120000D02*
X230500D01*
X254500D02*
X258500D01*
X230500Y124000D02*
X254500D01*
X230500Y116000D02*
Y124000D01*
Y116000D02*
X254500D01*
Y124000D01*
X234000Y222500D02*
X238000D01*
X262000D02*
X266000D01*
X238000Y226500D02*
X262000D01*
X238000Y218500D02*
Y226500D01*
Y218500D02*
X262000D01*
Y226500D01*
X112000Y67500D02*
X116000D01*
X84000D02*
X88000D01*
Y63500D02*
X112000D01*
Y71500D01*
X88000D02*
X112000D01*
X88000Y63500D02*
Y71500D01*
X259390Y207815D02*
X260059D01*
X244941D02*
X245610D01*
X212067Y44488D02*
X232933D01*
X212067Y55512D02*
X232933D01*
X212067Y44488D02*
Y55512D01*
X273012Y147067D02*
Y167933D01*
X261988Y147067D02*
Y167933D01*
Y147067D02*
X273012D01*
X211988D02*
Y167933D01*
X223012Y147067D02*
Y167933D01*
X211988D02*
X223012D01*
X292067Y228012D02*
X312933D01*
X292067Y216988D02*
X312933D01*
Y228012D01*
X211988Y227067D02*
Y247933D01*
X223012Y227067D02*
Y247933D01*
X211988D02*
X223012D01*
X302500Y72500D02*
Y107500D01*
Y72500D02*
X317500D01*
Y107500D01*
X302500D02*
X317500D01*
X262500Y47500D02*
X297500D01*
Y62500D01*
X262500D02*
X297500D01*
X262500Y47500D02*
Y62500D01*
X230000Y65000D02*
Y100000D01*
Y65000D02*
X245000D01*
Y100000D01*
X230000D02*
X245000D01*
D45*
X250295Y476256D02*
Y478224D01*
Y477240D01*
X244392D01*
X245376Y476256D01*
X255592D02*
X254608Y477240D01*
Y479208D01*
X255592Y480192D01*
X256576D01*
X257560Y479208D01*
Y478224D01*
Y479208D01*
X258544Y480192D01*
X259528D01*
X260512Y479208D01*
Y477240D01*
X259528Y476256D01*
X250295Y211256D02*
Y213224D01*
Y212240D01*
X244392D01*
X245376Y211256D01*
X255592D02*
X254608Y212240D01*
Y214208D01*
X255592Y215192D01*
X256576D01*
X257560Y214208D01*
Y213224D01*
Y214208D01*
X258544Y215192D01*
X259528D01*
X260512Y214208D01*
Y212240D01*
X259528Y211256D01*
D46*
X231752Y314999D02*
D03*
X293248Y487501D02*
D03*
X231752Y49999D02*
D03*
X293248Y222501D02*
D03*
D47*
X267501Y431752D02*
D03*
Y166752D02*
D03*
D48*
X217499Y413248D02*
D03*
X217500Y493248D02*
D03*
X217499Y148248D02*
D03*
X217500Y228248D02*
D03*
M02*
